<svg xmlns="http://www.w3.org/2000/svg" viewBox="50 48.76 411.79 56.09">   <defs>     <style>.cls-1{fill:#fff;stroke-width:0px;}</style>   </defs>   <path class="cls-1" d="M203.26,76.81c0,15.48-12.55,28.04-28.04,28.04s-28.03-12.55-28.03-28.04,12.55-28.04,28.03-28.04,28.04,12.55,28.04,28.04Z" transform="matrix(0.9999999999999999, 0, 0, 0.9999999999999999, 0, 0)"></path>   <path class="cls-1" d="M408.85,76.81c0,15.48-12.55,28.04-28.03,28.04s-28.04-12.55-28.04-28.04,12.55-28.04,28.04-28.04,28.03,12.55,28.03,28.04Z" transform="matrix(0.9999999999999999, 0, 0, 0.9999999999999999, 0, 0)"></path>   <path class="cls-1" d="M438.26,61.24h-10.45v11.59h10.27c5.18,0,7.73-2.02,7.73-5.97,0-3.69-2.28-5.62-7.55-5.62ZM446.86,102.67l-11.94-19.4h-7.11v19.4h-12.64v-52.67h23.53c12.91,0,19.58,5.71,19.58,16.5,0,8.08-3.95,13.17-10.71,15.45l14.22,20.54v.18h-14.92Z" transform="matrix(0.9999999999999999, 0, 0, 0.9999999999999999, 0, 0)"></path>   <path class="cls-1" d="M348.23,102.67h-12.64v-20.45h-21.86v20.45h-12.64v-52.67h12.64v20.19h21.86v-20.19h12.64v52.67Z" transform="matrix(0.9999999999999999, 0, 0, 0.9999999999999999, 0, 0)"></path>   <path class="cls-1" d="M276.17,61.24h-7.29v14.31h7.46c5.44,0,8.25-2.28,8.25-7.2s-2.63-7.11-8.43-7.11ZM277.75,86.78h-8.87v15.89h-12.64v-52.67h21.07c13.69,0,20.45,6.23,20.45,18.35,0,10.27-7.2,18.44-20.02,18.44Z" transform="matrix(0.9999999999999999, 0, 0, 0.9999999999999999, 0, 0)"></path>   <path class="cls-1" d="M230.7,103.9c-17.03-.09-22.82-8.6-24.05-18.17l12.38-2.46c1.23,6.32,5.97,9.74,12.55,9.74,5.27,0,8.25-1.84,8.25-5.18s-2.72-5.09-12.11-6.5c-14.57-2.19-19.23-8.25-19.23-16.59,0-9.92,7.11-15.98,20.89-15.98,14.48,0,20.45,7.46,22.3,16.94l-12.47,2.55c-1.49-5.97-4.21-8.87-10.53-8.87-4.92,0-7.37,2.02-7.37,5.09,0,2.72,1.4,4.83,12.47,6.5,15.01,2.37,18.96,8.95,18.96,16.42,0,10.01-6.76,16.5-22.03,16.5Z" transform="matrix(0.9999999999999999, 0, 0, 0.9999999999999999, 0, 0)"></path>   <path class="cls-1" d="M141.98,102.67h-12.64v-20.45h-21.86v20.45h-12.64v-52.67h12.64v20.19h21.86v-20.19h12.64v52.67Z" transform="matrix(0.9999999999999999, 0, 0, 0.9999999999999999, 0, 0)"></path>   <path class="cls-1" d="M69.93,61.24h-7.29v14.31h7.46c5.44,0,8.25-2.28,8.25-7.2s-2.63-7.11-8.43-7.11ZM71.51,86.78h-8.87v15.89h-12.64v-52.67h21.07c13.69,0,20.45,6.23,20.45,18.35,0,10.27-7.2,18.44-20.02,18.44Z" transform="matrix(0.9999999999999999, 0, 0, 0.9999999999999999, 0, 0)"></path> </svg>